<svg id="Layer_5" data-name="Layer 5" xmlns="http://www.w3.org/2000/svg" viewBox="0 0 841.89 315.67"><defs><style>.cls-1{fill:#3b4c5c;}.cls-2{fill:#ff9e00;}.cls-3{fill:#fff;}</style></defs><title>Event centrum logo</title><rect class="cls-1" width="841.89" height="315.67"/><circle class="cls-2" cx="366.28" cy="153.58" r="11.34"/><path class="cls-3" d="M366.28,169.17v28.18H87.3V109.48h279V138A15.59,15.59,0,0,0,366.28,169.17ZM116.12,168V157h20.44v-9.71H116.12V137.19h23.8V126.68H104.14v51.83h36.43V168H116.12Zm29.56-41.32,19.86,51.83h10l19.71-51.83H182.62l-12,36.79-12.26-36.79H145.68ZM214.88,168V157h20.44v-9.71H214.88V137.19h23.8V126.68H202.91v51.83h36.43V168H214.88Zm70.66,10.51h9.64V126.68h-12v30.44L259,126.68H249.7v51.83h12V148.88Zm62-51.83H303.94v10.51h15.84v41.32h12V137.19h15.77V126.68Z"/><path class="cls-3" d="M385.27,152.16a27.15,27.15,0,0,1,1.68-9.31,25.65,25.65,0,0,1,4.89-8.29,24.83,24.83,0,0,1,7.85-5.91,23.75,23.75,0,0,1,10.55-2.26,22.56,22.56,0,0,1,12,3.14,19.76,19.76,0,0,1,7.59,8.18l-9.2,6.42a10.81,10.81,0,0,0-2-3.39,11.41,11.41,0,0,0-2.7-2.19,10.34,10.34,0,0,0-3-1.17,14.49,14.49,0,0,0-3-.33,10.67,10.67,0,0,0-5.55,1.39,12.37,12.37,0,0,0-3.87,3.58,16,16,0,0,0-2.3,5,21,21,0,0,0-.77,5.62,19.23,19.23,0,0,0,.91,5.91,16.92,16.92,0,0,0,2.55,5,12.31,12.31,0,0,0,4,3.47,10.62,10.62,0,0,0,5.18,1.28,12.22,12.22,0,0,0,3-.4,12.07,12.07,0,0,0,3-1.24,10.17,10.17,0,0,0,2.63-2.19,10.7,10.7,0,0,0,1.9-3.32l9.85,5.77a15.75,15.75,0,0,1-3.39,5.11,21.09,21.09,0,0,1-5.07,3.8,26.16,26.16,0,0,1-6,2.34,25.41,25.41,0,0,1-6.24.8,21.37,21.37,0,0,1-9.89-2.3,25.18,25.18,0,0,1-7.74-6.1,28.82,28.82,0,0,1-5.07-8.61A27.41,27.41,0,0,1,385.27,152.16Z"/><path class="cls-3" d="M474.55,168v10.51H438.12V126.68h35.77v10.51h-23.8v10.07h20.44V157H450.09v11h24.46Z"/><path class="cls-3" d="M495.43,148.88v29.64h-12V126.68h9.34L517,157.12V126.68h12v51.83H519.3Z"/><path class="cls-3" d="M579.82,137.19H564v41.32h-12V137.19H536.23V126.68h43.58v10.51Z"/><path class="cls-3" d="M587.19,178.51V126.68h23.36a15,15,0,0,1,6.75,1.53,18,18,0,0,1,5.37,4,18.82,18.82,0,0,1,3.54,5.62,16.74,16.74,0,0,1,1.28,6.35,18.07,18.07,0,0,1-2.26,8.83,15.86,15.86,0,0,1-6.21,6.2l11.9,19.27H617.41L607,161.8h-7.81v16.72h-12Zm12-27.16h11a4.5,4.5,0,0,0,3.65-2,8.24,8.24,0,0,0,1.53-5.15,7.24,7.24,0,0,0-1.75-5.11,5.14,5.14,0,0,0-3.8-1.9H599.16v14.16Z"/><path class="cls-3" d="M659.9,168.29a9.86,9.86,0,0,0,5.18-1.28,10.17,10.17,0,0,0,3.43-3.39,14.51,14.51,0,0,0,1.86-4.85,28.46,28.46,0,0,0,.55-5.58v-26.5h12v26.5a36.16,36.16,0,0,1-1.35,10.07,23.22,23.22,0,0,1-4.16,8.18,19.49,19.49,0,0,1-7.15,5.51,24.44,24.44,0,0,1-10.33,2,24.13,24.13,0,0,1-10.58-2.12,19.6,19.6,0,0,1-7.12-5.66,23.3,23.3,0,0,1-4-8.21,36.93,36.93,0,0,1-1.28-9.78v-26.5h12v26.5a26.86,26.86,0,0,0,.58,5.69,15.08,15.08,0,0,0,1.9,4.82A9.38,9.38,0,0,0,659.9,168.29Z"/><path class="cls-3" d="M734.43,178.51v-31L723.19,170h-6.42l-11.24-22.56v31h-12V126.68h13L720,153.77l13.5-27.08H746.4v51.83h-12Z"/></svg>